<?xml version="1.0" encoding="UTF-8"?>
<svg version="1.1" xmlns="http://www.w3.org/2000/svg" width="117" height="117">
<path d="M0 0 C38.61 0 77.22 0 117 0 C117 38.61 117 77.22 117 117 C78.39 117 39.78 117 0 117 C0 78.39 0 39.78 0 0 Z " fill="#FDFEFD" transform="translate(0,0)"/>
<path d="M0 0 C37.77161863 0 37.77161863 0 43.4375 5.3125 C44.07558594 5.88613281 44.71367188 6.45976562 45.37109375 7.05078125 C49.2296962 11.66814965 49.43358483 16.41450395 49.31640625 22.2109375 C48.68934976 27.73832432 46.50628678 31.53233596 42.5625 35.375 C35.63026413 39.77105201 28.61376809 40.15566107 20.625 40.0625 C16.850625 40.0315625 16.850625 40.0315625 13 40 C13 47.92 13 55.84 13 64 C8.71 64 4.42 64 0 64 C0 42.88 0 21.76 0 0 Z " fill="#0C0C0C" transform="translate(64,25)"/>
<path d="M0 0 C7.64373142 -0.42088042 15.27592472 1.84261398 21.44921875 6.44140625 C24.65029044 9.87670269 28.01171875 14.29049603 28.01171875 19.19140625 C18.82227183 21.83921299 18.82227183 21.83921299 15.01171875 20.19140625 C13.27698163 18.25015281 11.60715365 16.24867757 10.01171875 14.19140625 C5.74010204 11.34366178 2.02315089 11.58159079 -2.98828125 12.19140625 C-7.63008443 14.25442988 -10.25506805 17.02317796 -12.296875 21.59375 C-14.59901516 30.24303367 -14.07376734 41.11694161 -9.98828125 49.19140625 C-6.49718302 52.68250448 -4.15921117 54.11334426 0.76171875 54.44140625 C4.92292161 54.34358412 7.57601689 53.71092095 11.01171875 51.19140625 C12.94706603 48.31136439 14.52720953 45.32464032 16.01171875 42.19140625 C17.63739945 42.50034557 19.26224623 42.81367575 20.88671875 43.12890625 C21.79164062 43.30292969 22.6965625 43.47695312 23.62890625 43.65625 C26.01171875 44.19140625 26.01171875 44.19140625 28.01171875 45.19140625 C27.42493644 51.45041758 23.74313915 56.93703085 19.07421875 61.00390625 C11.38075257 66.49923924 5.2878698 66.95140516 -3.98828125 66.19140625 C-11.10309291 64.86317079 -16.37567532 61.82524663 -20.6171875 55.92578125 C-27.41632283 45.24376623 -28.20831191 34.83230072 -26.62890625 22.3515625 C-24.78043043 14.44558147 -19.39925835 8.56869983 -13.0546875 3.7109375 C-8.78944266 1.07959491 -4.87742735 0.46953623 0 0 Z " fill="#0BD47F" transform="translate(34.98828125,23.80859375)"/>
<path d="M0 0 C2.51625 -0.0825 5.0325 -0.165 7.625 -0.25 C8.79603271 -0.30462402 8.79603271 -0.30462402 9.99072266 -0.36035156 C15.07884085 -0.44043872 18.04105994 0.53820096 22 4 C23.33252289 6.67035464 23.45503422 9.05977891 23 12 C20.35887667 15.54665133 18.31889585 17.28882676 14 18 C9.32977236 18.13207657 4.67317059 18.0432701 0 18 C0 12.06 0 6.12 0 0 Z " fill="#F5F5F5" transform="translate(77,36)"/>
<path d="M0 0 C0.33 0 0.66 0 1 0 C1 21.12 1 42.24 1 64 C0.67 64 0.34 64 0 64 C-0.33 60.04 -0.66 56.08 -1 52 C-1.99 52.495 -1.99 52.495 -3 53 C-2.01 50.03 -1.02 47.06 0 44 C-0.66 43.67 -1.32 43.34 -2 43 C-1.34 43 -0.68 43 0 43 C0 35.08 0 27.16 0 19 C-0.66 18.67 -1.32 18.34 -2 18 C-1.34 18 -0.68 18 0 18 C-0.17402344 17.48953125 -0.34804688 16.9790625 -0.52734375 16.453125 C-1.16767376 13.12975935 -0.84312439 10.11749265 -0.5625 6.75 C-0.40974609 4.85507812 -0.40974609 4.85507812 -0.25390625 2.921875 C-0.17011719 1.95765625 -0.08632813 0.9934375 0 0 Z " fill="#EDF3E6" transform="translate(63,25)"/>
</svg>
